<svg id="Ebene_1" data-name="Ebene 1" xmlns="http://www.w3.org/2000/svg" viewBox="0 0 36 36"><path d="M32.92,14.54a4.73,4.73,0,0,1-1.27,3.17,5.25,5.25,0,0,1,0,.56v0a4.72,4.72,0,0,1-.77,2.58H15.8c-.69,0-1,.58-.61,1.28,1.31,2.22,1.34,2.33,1.55,3.39a17.93,17.93,0,0,1,.13,3.68c-.05,2.54-2.61,4.48-5.55,4.48H9.5l0-4.24A3.55,3.55,0,0,0,8.67,27c-.66-.93-3.91-5.66-4.76-7a4.46,4.46,0,0,1-.83-3V7A4.68,4.68,0,0,1,7.47,2.31v0H22.15a4.67,4.67,0,0,1,4.6,4.06,4.69,4.69,0,0,1,3.05,3.77,4.75,4.75,0,0,1,1.76,1.11h0a4.44,4.44,0,0,1,1.36,3.31Zm-1.85,0a2.83,2.83,0,0,0-2.81-2.85H19V9.84h8.87a2.8,2.8,0,0,0-2.63-1.92H17.16V6.06H24.8a2.82,2.82,0,0,0-2.65-1.92H7.74A2.83,2.83,0,0,0,4.94,7h0V17a3.78,3.78,0,0,0,.84,2.5c.8,1.25,3.52,5.15,4.4,6.46,1,1.5,1.18,1.89,1.16,3.14v2.77c1.93,0,3.64-1.09,3.65-2.6,0-2.37,0-3.76-.54-4.76s-1.34-2.6-1.34-2.6A1.87,1.87,0,0,1,14.77,19h15a3,3,0,0,0,.11-.73A2.83,2.83,0,0,0,27,15.45H21.27V13.6H27A4.61,4.61,0,0,1,30.34,15h0a4.85,4.85,0,0,1,.51.61,3,3,0,0,0,.22-1.06Z"/></svg>